{
  "accessors": [
    {
      "bufferView": 2,
      "componentType": 5126,
      "count": 65532,
      "max": [
        18.244386672973633,
        74.560592651367188,
        58.7576904296875
      ],
      "min": [
        -15.653138160705566,
        -58.725986480712891,
        -0.4410400390625
      ],
      "type": "VEC3"
    },
    {
      "bufferView": 2,
      "byteOffset": 786384,
      "componentType": 5126,
      "count": 65532,
      "max": [
        0.99996882677078247,
        0.99998307228088379,
        0.99999481439590454
      ],
      "min": [
        -0.99998033046722412,
        -0.9999927282333374,
        -0.99999827146530151
      ],
      "type": "VEC3"
    },
    {
      "bufferView": 3,
      "componentType": 5126,
      "count": 65532,
      "max": [
        0.99991738796234131,
        0.99988698959350586,
        0.99997818470001221,
        1
      ],
      "min": [
        -0.99999958276748657,
        -0.99999600648880005,
        -0.99998986721038818,
        -1
      ],
      "type": "VEC4"
    },
    {
      "bufferView": 1,
      "componentType": 5126,
      "count": 65532,
      "max": [
        1.303725004196167,
        0.99089998006820679
      ],
      "min": [
        0.0080000003799796104,
        0.0067999958992004395
      ],
      "type": "VEC2"
    },
    {
      "bufferView": 0,
      "componentType": 5125,
      "count": 367449,
      "max": [
        65531
      ],
      "min": [
        0
      ],
      "type": "SCALAR"
    },
    {
      "bufferView": 2,
      "byteOffset": 1572768,
      "componentType": 5126,
      "count": 65532,
      "max": [
        18.681293487548828,
        74.560592651367188,
        58.7576904296875
      ],
      "min": [
        -0.66653364896774292,
        -58.628070831298828,
        -0.49798774719238281
      ],
      "type": "VEC3"
    },
    {
      "bufferView": 2,
      "byteOffset": 2359152,
      "componentType": 5126,
      "count": 65532,
      "max": [
        0.99999541044235229,
        0.99998307228088379,
        0.99999481439590454
      ],
      "min": [
        -0.9999992847442627,
        -0.99999707937240601,
        -0.99999827146530151
      ],
      "type": "VEC3"
    },
    {
      "bufferView": 3,
      "byteOffset": 1048512,
      "componentType": 5126,
      "count": 65532,
      "max": [
        0.99999088048934937,
        0.99968785047531128,
        0.99986386299133301,
        1
      ],
      "min": [
        -0.99990952014923096,
        -0.99999964237213135,
        -0.99993216991424561,
        -1
      ],
      "type": "VEC4"
    },
    {
      "bufferView": 1,
      "byteOffset": 524256,
      "componentType": 5126,
      "count": 65532,
      "max": [
        1.9941999912261963,
        0.98927497863769531
      ],
      "min": [
        0.22599999606609344,
        0.0067999958992004395
      ],
      "type": "VEC2"
    },
    {
      "bufferView": 0,
      "byteOffset": 1469796,
      "componentType": 5125,
      "count": 367014,
      "max": [
        65531
      ],
      "min": [
        0
      ],
      "type": "SCALAR"
    },
    {
      "bufferView": 2,
      "byteOffset": 3145536,
      "componentType": 5126,
      "count": 60844,
      "max": [
        18.327014923095703,
        74.387420654296875,
        59.737525939941406
      ],
      "min": [
        -14.248476028442383,
        -58.609966278076172,
        -0.10496711730957031
      ],
      "type": "VEC3"
    },
    {
      "bufferView": 2,
      "byteOffset": 3875664,
      "componentType": 5126,
      "count": 60844,
      "max": [
        0.99995684623718262,
        0.99999916553497314,
        0.99992889165878296
      ],
      "min": [
        -0.99992603063583374,
        -0.99998551607131958,
        -0.99995976686477661
      ],
      "type": "VEC3"
    },
    {
      "bufferView": 3,
      "byteOffset": 2097024,
      "componentType": 5126,
      "count": 60844,
      "max": [
        0.99997156858444214,
        0.99713033437728882,
        0.99970906972885132,
        1
      ],
      "min": [
        -0.99995255470275879,
        -0.99999356269836426,
        -0.99920541048049927,
        -1
      ],
      "type": "VEC4"
    },
    {
      "bufferView": 1,
      "byteOffset": 1048512,
      "componentType": 5126,
      "count": 60844,
      "max": [
        1.9890249967575073,
        0.99027496576309204
      ],
      "min": [
        0.014200000092387199,
        0.015250027179718018
      ],
      "type": "VEC2"
    },
    {
      "bufferView": 0,
      "byteOffset": 2937852,
      "componentType": 5125,
      "count": 314673,
      "max": [
        60843
      ],
      "min": [
        0
      ],
      "type": "SCALAR"
    }
  ],
  "asset": {
    "extras": {
      "author": "Monster (https://sketchfab.com/monster)",
      "license": "CC-BY-NC-ND-4.0 (http://creativecommons.org/licenses/by-nc-nd/4.0/)",
      "source": "https://sketchfab.com/3d-models/spinosaurus-d98b4f7dcf6d40b8b1f0b5523b3f551a",
      "title": "Spinosaurus"
    },
    "generator": "Sketchfab-5.43.0",
    "version": "2.0"
  },
  "bufferViews": [
    {
      "buffer": 0,
      "byteLength": 4196544,
      "byteOffset": 0,
      "name": "floatBufferViews",
      "target": 34963
    },
    {
      "buffer": 0,
      "byteLength": 1535264,
      "byteOffset": 4196544,
      "byteStride": 8,
      "name": "floatBufferViews",
      "target": 34962
    },
    {
      "buffer": 0,
      "byteLength": 4605792,
      "byteOffset": 5731808,
      "byteStride": 12,
      "name": "floatBufferViews",
      "target": 34962
    },
    {
      "buffer": 0,
      "byteLength": 3070528,
      "byteOffset": 10337600,
      "byteStride": 16,
      "name": "floatBufferViews",
      "target": 34962
    }
  ],
  "buffers": [
    {
      "byteLength": 13408128,
      "uri": "scene.bin"
    }
  ],
  "images": [
    {
      "uri": "textures/Standardmaterial_baseColor.jpeg"
    },
    {
      "uri": "textures/Standardmaterial_normal.jpeg"
    },
    {
      "uri": "textures/Standardmaterial_metallicRoughness.png"
    }
  ],
  "materials": [
    {
      "doubleSided": false,
      "emissiveFactor": [
        0,
        0,
        0
      ],
      "name": "Standardmaterial",
      "normalTexture": {
        "index": 1,
        "scale": 1,
        "texCoord": 0
      },
      "pbrMetallicRoughness": {
        "baseColorFactor": [
          1,
          1,
          1,
          1
        ],
        "baseColorTexture": {
          "index": 0,
          "texCoord": 0
        },
        "metallicFactor": 0,
        "metallicRoughnessTexture": {
          "index": 2,
          "texCoord": 0
        },
        "roughnessFactor": 1
      }
    }
  ],
  "meshes": [
    {
      "name": "spino_v02_printable_Standardmaterial_0",
      "primitives": [
        {
          "attributes": {
            "NORMAL": 1,
            "POSITION": 0,
            "TANGENT": 2,
            "TEXCOORD_0": 3
          },
          "indices": 4,
          "material": 0,
          "mode": 4
        }
      ]
    },
    {
      "name": "spino_v02_printable_Standardmaterial_0",
      "primitives": [
        {
          "attributes": {
            "NORMAL": 6,
            "POSITION": 5,
            "TANGENT": 7,
            "TEXCOORD_0": 8
          },
          "indices": 9,
          "material": 0,
          "mode": 4
        }
      ]
    },
    {
      "name": "spino_v02_printable_Standardmaterial_0",
      "primitives": [
        {
          "attributes": {
            "NORMAL": 11,
            "POSITION": 10,
            "TANGENT": 12,
            "TEXCOORD_0": 13
          },
          "indices": 14,
          "material": 0,
          "mode": 4
        }
      ]
    }
  ],
  "nodes": [
    {
      "children": [
        1
      ],
      "name": "RootNode (gltf orientation matrix)",
      "rotation": [
        -0.70710678118654746,
        -0,
        -0,
        0.70710678118654757
      ]
    },
    {
      "children": [
        2
      ],
      "name": "RootNode (model correction matrix)"
    },
    {
      "children": [
        3
      ],
      "matrix": [
        1,
        0,
        0,
        0,
        0,
        0,
        1,
        0,
        0,
        -1,
        0,
        0,
        0,
        0,
        0,
        1
      ],
      "name": "78dfd54c8cc448f2be43f26fbbb5fa4c.fbx"
    },
    {
      "children": [
        4
      ],
      "name": "RootNode"
    },
    {
      "children": [
        5,
        6,
        7
      ],
      "matrix": [
        1,
        0,
        0,
        0,
        0,
        2.2204460492503131e-16,
        -1,
        0,
        0,
        1,
        2.2204460492503131e-16,
        0,
        0,
        0,
        0,
        1
      ],
      "name": "spino_v02_printable"
    },
    {
      "mesh": 0,
      "name": "spino_v02_printable_Standardmaterial_0"
    },
    {
      "mesh": 1,
      "name": "spino_v02_printable_Standardmaterial_0"
    },
    {
      "mesh": 2,
      "name": "spino_v02_printable_Standardmaterial_0"
    }
  ],
  "samplers": [
    {
      "magFilter": 9729,
      "minFilter": 9987,
      "wrapS": 10497,
      "wrapT": 10497
    }
  ],
  "scene": 0,
  "scenes": [
    {
      "name": "OSG_Scene",
      "nodes": [
        0
      ]
    }
  ],
  "textures": [
    {
      "sampler": 0,
      "source": 0
    },
    {
      "sampler": 0,
      "source": 1
    },
    {
      "sampler": 0,
      "source": 2
    }
  ]
}

